<mxfile host="app.diagrams.net" modified="2023-11-22T19:11:44.328Z" agent="Mozilla/5.0 (Windows NT 10.0; Win64; x64) AppleWebKit/537.36 (KHTML, like Gecko) Chrome/119.0.0.0 Safari/537.36 Edg/119.0.0.0" etag="J_Hcz4oDfdmuBUS3b0uk" version="22.1.3" type="device">
  <diagram name="Page-1" id="_fEqKa30JmQ6TdLn7bgj">
    <mxGraphModel dx="1310" dy="669" grid="1" gridSize="10" guides="1" tooltips="1" connect="1" arrows="1" fold="1" page="1" pageScale="1" pageWidth="827" pageHeight="1169" math="0" shadow="0">
      <root>
        <mxCell id="0" />
        <mxCell id="1" parent="0" />
        <mxCell id="rqSCRaX1qZzWZmFZ8lpy-1" value="&lt;u&gt;&lt;font style=&quot;font-size: 14px;&quot;&gt;Customer_ID&lt;/font&gt;&lt;/u&gt;" style="rounded=0;whiteSpace=wrap;html=1;" vertex="1" parent="1">
          <mxGeometry x="40" y="50" width="120" height="30" as="geometry" />
        </mxCell>
        <mxCell id="rqSCRaX1qZzWZmFZ8lpy-2" value="&lt;font style=&quot;font-size: 14px;&quot;&gt;First_Name&lt;/font&gt;" style="rounded=0;whiteSpace=wrap;html=1;" vertex="1" parent="1">
          <mxGeometry x="150" y="50" width="120" height="30" as="geometry" />
        </mxCell>
        <mxCell id="rqSCRaX1qZzWZmFZ8lpy-97" style="edgeStyle=orthogonalEdgeStyle;rounded=0;orthogonalLoop=1;jettySize=auto;html=1;exitX=0.5;exitY=1;exitDx=0;exitDy=0;entryX=0.857;entryY=-0.104;entryDx=0;entryDy=0;entryPerimeter=0;" edge="1" parent="1" source="rqSCRaX1qZzWZmFZ8lpy-3" target="rqSCRaX1qZzWZmFZ8lpy-10">
          <mxGeometry relative="1" as="geometry">
            <mxPoint x="674.8947368421054" y="100" as="targetPoint" />
          </mxGeometry>
        </mxCell>
        <mxCell id="rqSCRaX1qZzWZmFZ8lpy-3" value="&lt;font style=&quot;font-size: 14px;&quot;&gt;Customer_service_ID&lt;/font&gt;" style="rounded=0;whiteSpace=wrap;html=1;" vertex="1" parent="1">
          <mxGeometry x="600" y="50" width="150" height="30" as="geometry" />
        </mxCell>
        <mxCell id="rqSCRaX1qZzWZmFZ8lpy-4" value="&lt;font style=&quot;font-size: 14px;&quot;&gt;Address&lt;/font&gt;" style="rounded=0;whiteSpace=wrap;html=1;" vertex="1" parent="1">
          <mxGeometry x="480" y="50" width="120" height="30" as="geometry" />
        </mxCell>
        <mxCell id="rqSCRaX1qZzWZmFZ8lpy-5" value="&lt;font style=&quot;font-size: 14px;&quot;&gt;Email&lt;/font&gt;" style="rounded=0;whiteSpace=wrap;html=1;" vertex="1" parent="1">
          <mxGeometry x="370" y="50" width="120" height="30" as="geometry" />
        </mxCell>
        <mxCell id="rqSCRaX1qZzWZmFZ8lpy-6" value="&lt;font style=&quot;font-size: 14px;&quot;&gt;Last_Name&lt;/font&gt;" style="rounded=0;whiteSpace=wrap;html=1;" vertex="1" parent="1">
          <mxGeometry x="260" y="50" width="120" height="30" as="geometry" />
        </mxCell>
        <mxCell id="rqSCRaX1qZzWZmFZ8lpy-8" style="edgeStyle=orthogonalEdgeStyle;rounded=0;orthogonalLoop=1;jettySize=auto;html=1;exitX=0.5;exitY=1;exitDx=0;exitDy=0;" edge="1" parent="1" source="rqSCRaX1qZzWZmFZ8lpy-4" target="rqSCRaX1qZzWZmFZ8lpy-4">
          <mxGeometry relative="1" as="geometry" />
        </mxCell>
        <mxCell id="rqSCRaX1qZzWZmFZ8lpy-10" value="&lt;u&gt;&lt;font style=&quot;font-size: 14px;&quot;&gt;Customer_service_ID&lt;/font&gt;&lt;/u&gt;" style="rounded=0;whiteSpace=wrap;html=1;" vertex="1" parent="1">
          <mxGeometry x="40" y="130" width="150" height="30" as="geometry" />
        </mxCell>
        <mxCell id="rqSCRaX1qZzWZmFZ8lpy-11" value="&lt;font style=&quot;font-size: 14px;&quot;&gt;Name&lt;/font&gt;" style="rounded=0;whiteSpace=wrap;html=1;" vertex="1" parent="1">
          <mxGeometry x="190" y="130" width="90" height="30" as="geometry" />
        </mxCell>
        <mxCell id="rqSCRaX1qZzWZmFZ8lpy-21" style="edgeStyle=orthogonalEdgeStyle;rounded=0;orthogonalLoop=1;jettySize=auto;html=1;exitX=0;exitY=0.5;exitDx=0;exitDy=0;" edge="1" parent="1" source="rqSCRaX1qZzWZmFZ8lpy-13" target="rqSCRaX1qZzWZmFZ8lpy-10">
          <mxGeometry relative="1" as="geometry">
            <mxPoint x="157" y="180" as="targetPoint" />
            <Array as="points">
              <mxPoint x="300" y="155" />
              <mxPoint x="300" y="200" />
              <mxPoint x="157" y="200" />
            </Array>
          </mxGeometry>
        </mxCell>
        <mxCell id="rqSCRaX1qZzWZmFZ8lpy-13" value="&lt;u&gt;&lt;font style=&quot;font-size: 14px;&quot;&gt;Customer_service_ID&lt;/font&gt;&lt;/u&gt;" style="rounded=0;whiteSpace=wrap;html=1;" vertex="1" parent="1">
          <mxGeometry x="380" y="130" width="150" height="30" as="geometry" />
        </mxCell>
        <mxCell id="rqSCRaX1qZzWZmFZ8lpy-23" style="edgeStyle=orthogonalEdgeStyle;rounded=0;orthogonalLoop=1;jettySize=auto;html=1;entryX=0.5;entryY=1;entryDx=0;entryDy=0;" edge="1" parent="1" source="rqSCRaX1qZzWZmFZ8lpy-14" target="rqSCRaX1qZzWZmFZ8lpy-10">
          <mxGeometry relative="1" as="geometry">
            <mxPoint x="130.00000000000023" y="264.9999999999999" as="targetPoint" />
          </mxGeometry>
        </mxCell>
        <mxCell id="rqSCRaX1qZzWZmFZ8lpy-14" value="&lt;u&gt;&lt;font style=&quot;font-size: 14px;&quot;&gt;Customer_service_ID&lt;/font&gt;&lt;/u&gt;" style="rounded=0;whiteSpace=wrap;html=1;" vertex="1" parent="1">
          <mxGeometry x="380" y="260" width="150" height="30" as="geometry" />
        </mxCell>
        <mxCell id="rqSCRaX1qZzWZmFZ8lpy-22" style="edgeStyle=orthogonalEdgeStyle;rounded=0;orthogonalLoop=1;jettySize=auto;html=1;exitX=0;exitY=0.5;exitDx=0;exitDy=0;entryX=0.664;entryY=1.104;entryDx=0;entryDy=0;entryPerimeter=0;" edge="1" parent="1" source="rqSCRaX1qZzWZmFZ8lpy-17" target="rqSCRaX1qZzWZmFZ8lpy-10">
          <mxGeometry relative="1" as="geometry">
            <mxPoint x="140.00000000000023" y="205.42105263157896" as="targetPoint" />
          </mxGeometry>
        </mxCell>
        <mxCell id="rqSCRaX1qZzWZmFZ8lpy-17" value="&lt;u&gt;&lt;font style=&quot;font-size: 14px;&quot;&gt;Customer_service_ID&lt;/font&gt;&lt;/u&gt;" style="rounded=0;whiteSpace=wrap;html=1;" vertex="1" parent="1">
          <mxGeometry x="380" y="200" width="150" height="30" as="geometry" />
        </mxCell>
        <mxCell id="rqSCRaX1qZzWZmFZ8lpy-18" value="&lt;u&gt;&lt;font style=&quot;font-size: 14px;&quot;&gt;Email&lt;/font&gt;&lt;/u&gt;" style="rounded=0;whiteSpace=wrap;html=1;" vertex="1" parent="1">
          <mxGeometry x="530" y="130" width="130" height="30" as="geometry" />
        </mxCell>
        <mxCell id="rqSCRaX1qZzWZmFZ8lpy-19" value="&lt;u&gt;&lt;font style=&quot;font-size: 14px;&quot;&gt;Phone_Number&lt;/font&gt;&lt;/u&gt;" style="rounded=0;whiteSpace=wrap;html=1;" vertex="1" parent="1">
          <mxGeometry x="530" y="200" width="130" height="30" as="geometry" />
        </mxCell>
        <mxCell id="rqSCRaX1qZzWZmFZ8lpy-20" value="&lt;u&gt;&lt;font style=&quot;font-size: 14px;&quot;&gt;Language&lt;/font&gt;&lt;/u&gt;" style="rounded=0;whiteSpace=wrap;html=1;" vertex="1" parent="1">
          <mxGeometry x="530" y="260" width="130" height="30" as="geometry" />
        </mxCell>
        <mxCell id="rqSCRaX1qZzWZmFZ8lpy-26" style="edgeStyle=orthogonalEdgeStyle;rounded=0;orthogonalLoop=1;jettySize=auto;html=1;exitX=0;exitY=0.5;exitDx=0;exitDy=0;entryX=0;entryY=0.5;entryDx=0;entryDy=0;" edge="1" parent="1" source="rqSCRaX1qZzWZmFZ8lpy-24" target="rqSCRaX1qZzWZmFZ8lpy-1">
          <mxGeometry relative="1" as="geometry">
            <mxPoint x="30" y="70" as="targetPoint" />
          </mxGeometry>
        </mxCell>
        <mxCell id="rqSCRaX1qZzWZmFZ8lpy-24" value="&lt;u&gt;&lt;font style=&quot;font-size: 14px;&quot;&gt;Customer_ID&lt;/font&gt;&lt;/u&gt;" style="rounded=0;whiteSpace=wrap;html=1;" vertex="1" parent="1">
          <mxGeometry x="60" y="300" width="120" height="30" as="geometry" />
        </mxCell>
        <mxCell id="rqSCRaX1qZzWZmFZ8lpy-25" value="&lt;u&gt;&lt;font style=&quot;font-size: 14px;&quot;&gt;Phone_number&lt;/font&gt;&lt;/u&gt;" style="rounded=0;whiteSpace=wrap;html=1;" vertex="1" parent="1">
          <mxGeometry x="180" y="300" width="120" height="30" as="geometry" />
        </mxCell>
        <mxCell id="rqSCRaX1qZzWZmFZ8lpy-27" value="&lt;u&gt;&lt;font style=&quot;font-size: 14px;&quot;&gt;Order_ID&lt;/font&gt;&lt;/u&gt;" style="rounded=0;whiteSpace=wrap;html=1;" vertex="1" parent="1">
          <mxGeometry x="50" y="380" width="120" height="30" as="geometry" />
        </mxCell>
        <mxCell id="rqSCRaX1qZzWZmFZ8lpy-29" value="&lt;font style=&quot;font-size: 14px;&quot;&gt;Order_Status&lt;/font&gt;" style="rounded=0;whiteSpace=wrap;html=1;" vertex="1" parent="1">
          <mxGeometry x="160" y="380" width="120" height="30" as="geometry" />
        </mxCell>
        <mxCell id="rqSCRaX1qZzWZmFZ8lpy-30" value="&lt;font style=&quot;font-size: 14px;&quot;&gt;Order_Date&lt;/font&gt;" style="rounded=0;whiteSpace=wrap;html=1;" vertex="1" parent="1">
          <mxGeometry x="280" y="380" width="120" height="30" as="geometry" />
        </mxCell>
        <mxCell id="rqSCRaX1qZzWZmFZ8lpy-32" style="edgeStyle=orthogonalEdgeStyle;rounded=0;orthogonalLoop=1;jettySize=auto;html=1;exitX=0.5;exitY=0;exitDx=0;exitDy=0;entryX=0;entryY=0;entryDx=0;entryDy=0;" edge="1" parent="1" source="rqSCRaX1qZzWZmFZ8lpy-31" target="rqSCRaX1qZzWZmFZ8lpy-1">
          <mxGeometry relative="1" as="geometry">
            <mxPoint x="10" y="330" as="targetPoint" />
            <Array as="points">
              <mxPoint x="450" y="356" />
              <mxPoint x="10" y="356" />
              <mxPoint x="10" y="50" />
            </Array>
          </mxGeometry>
        </mxCell>
        <mxCell id="rqSCRaX1qZzWZmFZ8lpy-31" value="&lt;font style=&quot;font-size: 14px;&quot;&gt;Customer_ID&lt;/font&gt;" style="rounded=0;whiteSpace=wrap;html=1;" vertex="1" parent="1">
          <mxGeometry x="390" y="380" width="120" height="30" as="geometry" />
        </mxCell>
        <mxCell id="rqSCRaX1qZzWZmFZ8lpy-34" style="edgeStyle=orthogonalEdgeStyle;rounded=0;orthogonalLoop=1;jettySize=auto;html=1;exitX=0.5;exitY=0;exitDx=0;exitDy=0;entryX=0.5;entryY=1;entryDx=0;entryDy=0;" edge="1" parent="1" source="rqSCRaX1qZzWZmFZ8lpy-33" target="rqSCRaX1qZzWZmFZ8lpy-27">
          <mxGeometry relative="1" as="geometry" />
        </mxCell>
        <mxCell id="rqSCRaX1qZzWZmFZ8lpy-33" value="&lt;u&gt;&lt;font style=&quot;font-size: 14px;&quot;&gt;Order_ID&lt;/font&gt;&lt;/u&gt;" style="rounded=0;whiteSpace=wrap;html=1;" vertex="1" parent="1">
          <mxGeometry x="50" y="450" width="120" height="30" as="geometry" />
        </mxCell>
        <mxCell id="rqSCRaX1qZzWZmFZ8lpy-35" value="&lt;span style=&quot;font-size: 14px;&quot;&gt;Item&lt;/span&gt;" style="rounded=0;whiteSpace=wrap;html=1;" vertex="1" parent="1">
          <mxGeometry x="170" y="450" width="80" height="30" as="geometry" />
        </mxCell>
        <mxCell id="rqSCRaX1qZzWZmFZ8lpy-36" value="&lt;span style=&quot;font-size: 14px;&quot;&gt;Price&lt;/span&gt;" style="rounded=0;whiteSpace=wrap;html=1;" vertex="1" parent="1">
          <mxGeometry x="250" y="450" width="80" height="30" as="geometry" />
        </mxCell>
        <mxCell id="rqSCRaX1qZzWZmFZ8lpy-41" style="edgeStyle=orthogonalEdgeStyle;rounded=0;orthogonalLoop=1;jettySize=auto;html=1;exitX=0.5;exitY=0;exitDx=0;exitDy=0;entryX=0.75;entryY=1;entryDx=0;entryDy=0;" edge="1" parent="1" source="rqSCRaX1qZzWZmFZ8lpy-37" target="rqSCRaX1qZzWZmFZ8lpy-27">
          <mxGeometry relative="1" as="geometry">
            <mxPoint x="500.1578947368421" y="420" as="targetPoint" />
            <Array as="points">
              <mxPoint x="500" y="430" />
              <mxPoint x="140" y="430" />
            </Array>
          </mxGeometry>
        </mxCell>
        <mxCell id="rqSCRaX1qZzWZmFZ8lpy-37" value="&lt;u&gt;&lt;font style=&quot;font-size: 14px;&quot;&gt;Order_ID&lt;/font&gt;&lt;/u&gt;" style="rounded=0;whiteSpace=wrap;html=1;" vertex="1" parent="1">
          <mxGeometry x="440" y="435" width="120" height="35" as="geometry" />
        </mxCell>
        <mxCell id="rqSCRaX1qZzWZmFZ8lpy-78" style="edgeStyle=orthogonalEdgeStyle;rounded=0;orthogonalLoop=1;jettySize=auto;html=1;exitX=0.5;exitY=1;exitDx=0;exitDy=0;entryX=0.882;entryY=1.026;entryDx=0;entryDy=0;entryPerimeter=0;" edge="1" parent="1" source="rqSCRaX1qZzWZmFZ8lpy-38" target="rqSCRaX1qZzWZmFZ8lpy-53">
          <mxGeometry relative="1" as="geometry">
            <mxPoint x="140" y="800" as="targetPoint" />
            <Array as="points">
              <mxPoint x="740" y="800" />
              <mxPoint x="146" y="800" />
            </Array>
          </mxGeometry>
        </mxCell>
        <mxCell id="rqSCRaX1qZzWZmFZ8lpy-38" value="&lt;font style=&quot;font-size: 14px;&quot;&gt;&lt;u&gt;Restaurant_ID&lt;/u&gt;&lt;/font&gt;" style="rounded=0;whiteSpace=wrap;html=1;" vertex="1" parent="1">
          <mxGeometry x="680" y="435" width="120" height="35" as="geometry" />
        </mxCell>
        <mxCell id="rqSCRaX1qZzWZmFZ8lpy-43" style="edgeStyle=orthogonalEdgeStyle;rounded=0;orthogonalLoop=1;jettySize=auto;html=1;exitX=0.5;exitY=1;exitDx=0;exitDy=0;entryX=0.5;entryY=0;entryDx=0;entryDy=0;" edge="1" parent="1" source="rqSCRaX1qZzWZmFZ8lpy-39" target="rqSCRaX1qZzWZmFZ8lpy-42">
          <mxGeometry relative="1" as="geometry" />
        </mxCell>
        <mxCell id="rqSCRaX1qZzWZmFZ8lpy-39" value="&lt;font style=&quot;font-size: 14px;&quot;&gt;&lt;u&gt;Pharmacy_ID&lt;/u&gt;&lt;/font&gt;" style="rounded=0;whiteSpace=wrap;html=1;" vertex="1" parent="1">
          <mxGeometry x="560" y="435" width="120" height="35" as="geometry" />
        </mxCell>
        <mxCell id="rqSCRaX1qZzWZmFZ8lpy-42" value="&lt;font style=&quot;font-size: 14px;&quot;&gt;&lt;u&gt;Pharmacy_ID&lt;/u&gt;&lt;/font&gt;" style="rounded=0;whiteSpace=wrap;html=1;" vertex="1" parent="1">
          <mxGeometry x="40" y="530" width="120" height="35" as="geometry" />
        </mxCell>
        <mxCell id="rqSCRaX1qZzWZmFZ8lpy-45" value="&lt;span style=&quot;font-size: 14px;&quot;&gt;Name&lt;/span&gt;" style="rounded=0;whiteSpace=wrap;html=1;" vertex="1" parent="1">
          <mxGeometry x="160" y="530" width="90" height="35" as="geometry" />
        </mxCell>
        <mxCell id="rqSCRaX1qZzWZmFZ8lpy-48" value="&lt;span style=&quot;font-size: 14px;&quot;&gt;Hotline&lt;/span&gt;" style="rounded=0;whiteSpace=wrap;html=1;" vertex="1" parent="1">
          <mxGeometry x="250" y="530" width="90" height="35" as="geometry" />
        </mxCell>
        <mxCell id="rqSCRaX1qZzWZmFZ8lpy-51" style="edgeStyle=orthogonalEdgeStyle;rounded=0;orthogonalLoop=1;jettySize=auto;html=1;exitX=0.5;exitY=0;exitDx=0;exitDy=0;entryX=0.5;entryY=1;entryDx=0;entryDy=0;" edge="1" parent="1" source="rqSCRaX1qZzWZmFZ8lpy-49" target="rqSCRaX1qZzWZmFZ8lpy-42">
          <mxGeometry relative="1" as="geometry">
            <Array as="points">
              <mxPoint x="100" y="600" />
              <mxPoint x="100" y="600" />
            </Array>
          </mxGeometry>
        </mxCell>
        <mxCell id="rqSCRaX1qZzWZmFZ8lpy-49" value="&lt;font style=&quot;font-size: 14px;&quot;&gt;&lt;u&gt;Pharmacy_ID&lt;/u&gt;&lt;/font&gt;" style="rounded=0;whiteSpace=wrap;html=1;" vertex="1" parent="1">
          <mxGeometry x="40" y="620" width="120" height="35" as="geometry" />
        </mxCell>
        <mxCell id="rqSCRaX1qZzWZmFZ8lpy-50" value="&lt;span style=&quot;font-size: 14px;&quot;&gt;&lt;u&gt;Drug_Trade_Name&lt;/u&gt;&lt;/span&gt;" style="rounded=0;whiteSpace=wrap;html=1;" vertex="1" parent="1">
          <mxGeometry x="160" y="620" width="140" height="35" as="geometry" />
        </mxCell>
        <mxCell id="rqSCRaX1qZzWZmFZ8lpy-52" value="&lt;span style=&quot;font-size: 14px;&quot;&gt;Sell_Price&lt;/span&gt;" style="rounded=0;whiteSpace=wrap;html=1;" vertex="1" parent="1">
          <mxGeometry x="300" y="620" width="90" height="35" as="geometry" />
        </mxCell>
        <mxCell id="rqSCRaX1qZzWZmFZ8lpy-53" value="&lt;font style=&quot;font-size: 14px;&quot;&gt;&lt;u&gt;Restaurant_ID&lt;/u&gt;&lt;/font&gt;" style="rounded=0;whiteSpace=wrap;html=1;" vertex="1" parent="1">
          <mxGeometry x="40" y="730" width="120" height="35" as="geometry" />
        </mxCell>
        <mxCell id="rqSCRaX1qZzWZmFZ8lpy-56" value="&lt;span style=&quot;font-size: 14px;&quot;&gt;Name&lt;/span&gt;" style="rounded=0;whiteSpace=wrap;html=1;" vertex="1" parent="1">
          <mxGeometry x="160" y="730" width="90" height="35" as="geometry" />
        </mxCell>
        <mxCell id="rqSCRaX1qZzWZmFZ8lpy-57" value="&lt;span style=&quot;font-size: 14px;&quot;&gt;Hotline&lt;/span&gt;" style="rounded=0;whiteSpace=wrap;html=1;" vertex="1" parent="1">
          <mxGeometry x="250" y="730" width="90" height="35" as="geometry" />
        </mxCell>
        <mxCell id="rqSCRaX1qZzWZmFZ8lpy-58" value="&lt;span style=&quot;font-size: 14px;&quot;&gt;Stars_Rate&lt;/span&gt;" style="rounded=0;whiteSpace=wrap;html=1;" vertex="1" parent="1">
          <mxGeometry x="340" y="730" width="90" height="35" as="geometry" />
        </mxCell>
        <mxCell id="rqSCRaX1qZzWZmFZ8lpy-68" style="edgeStyle=orthogonalEdgeStyle;rounded=0;orthogonalLoop=1;jettySize=auto;html=1;exitX=0.5;exitY=0;exitDx=0;exitDy=0;entryX=0.5;entryY=1;entryDx=0;entryDy=0;" edge="1" parent="1" source="rqSCRaX1qZzWZmFZ8lpy-59" target="rqSCRaX1qZzWZmFZ8lpy-53">
          <mxGeometry relative="1" as="geometry" />
        </mxCell>
        <mxCell id="rqSCRaX1qZzWZmFZ8lpy-59" value="&lt;font style=&quot;font-size: 14px;&quot;&gt;&lt;u&gt;Restaurant_ID&lt;/u&gt;&lt;/font&gt;" style="rounded=0;whiteSpace=wrap;html=1;" vertex="1" parent="1">
          <mxGeometry x="40" y="880" width="120" height="35" as="geometry" />
        </mxCell>
        <mxCell id="rqSCRaX1qZzWZmFZ8lpy-72" style="edgeStyle=orthogonalEdgeStyle;rounded=0;orthogonalLoop=1;jettySize=auto;html=1;exitX=0.5;exitY=0;exitDx=0;exitDy=0;entryX=0.75;entryY=1;entryDx=0;entryDy=0;" edge="1" parent="1" source="rqSCRaX1qZzWZmFZ8lpy-61" target="rqSCRaX1qZzWZmFZ8lpy-53">
          <mxGeometry relative="1" as="geometry">
            <mxPoint x="449.63157894736855" y="760" as="targetPoint" />
          </mxGeometry>
        </mxCell>
        <mxCell id="rqSCRaX1qZzWZmFZ8lpy-61" value="&lt;font style=&quot;font-size: 14px;&quot;&gt;&lt;u&gt;Restaurant_ID&lt;/u&gt;&lt;/font&gt;" style="rounded=0;whiteSpace=wrap;html=1;" vertex="1" parent="1">
          <mxGeometry x="380" y="880" width="120" height="35" as="geometry" />
        </mxCell>
        <mxCell id="rqSCRaX1qZzWZmFZ8lpy-62" value="&lt;span style=&quot;font-size: 14px;&quot;&gt;Address&lt;/span&gt;" style="rounded=0;whiteSpace=wrap;html=1;" vertex="1" parent="1">
          <mxGeometry x="160" y="880" width="90" height="35" as="geometry" />
        </mxCell>
        <mxCell id="rqSCRaX1qZzWZmFZ8lpy-64" value="&lt;span style=&quot;font-size: 14px;&quot;&gt;Address&lt;/span&gt;" style="rounded=0;whiteSpace=wrap;html=1;" vertex="1" parent="1">
          <mxGeometry x="550" y="530" width="90" height="35" as="geometry" />
        </mxCell>
        <mxCell id="rqSCRaX1qZzWZmFZ8lpy-67" style="edgeStyle=orthogonalEdgeStyle;rounded=0;orthogonalLoop=1;jettySize=auto;html=1;exitX=0.5;exitY=1;exitDx=0;exitDy=0;entryX=0.75;entryY=1;entryDx=0;entryDy=0;" edge="1" parent="1" source="rqSCRaX1qZzWZmFZ8lpy-65" target="rqSCRaX1qZzWZmFZ8lpy-42">
          <mxGeometry relative="1" as="geometry">
            <mxPoint x="450" y="610" as="targetPoint" />
          </mxGeometry>
        </mxCell>
        <mxCell id="rqSCRaX1qZzWZmFZ8lpy-65" value="&lt;font style=&quot;font-size: 14px;&quot;&gt;&lt;u&gt;Pharmacy_ID&lt;/u&gt;&lt;/font&gt;" style="rounded=0;whiteSpace=wrap;html=1;" vertex="1" parent="1">
          <mxGeometry x="430" y="530" width="120" height="35" as="geometry" />
        </mxCell>
        <mxCell id="rqSCRaX1qZzWZmFZ8lpy-69" value="&lt;span style=&quot;font-size: 14px;&quot;&gt;&lt;u&gt;Dish_Name&lt;/u&gt;&lt;/span&gt;" style="rounded=0;whiteSpace=wrap;html=1;" vertex="1" parent="1">
          <mxGeometry x="500" y="880" width="90" height="35" as="geometry" />
        </mxCell>
        <mxCell id="rqSCRaX1qZzWZmFZ8lpy-70" value="&lt;span style=&quot;font-size: 14px;&quot;&gt;Price&lt;/span&gt;" style="rounded=0;whiteSpace=wrap;html=1;" vertex="1" parent="1">
          <mxGeometry x="590" y="880" width="90" height="35" as="geometry" />
        </mxCell>
        <mxCell id="rqSCRaX1qZzWZmFZ8lpy-73" value="&lt;font style=&quot;font-size: 16px;&quot;&gt;Dishs&lt;/font&gt;" style="text;html=1;align=center;verticalAlign=middle;resizable=0;points=[];autosize=1;strokeColor=none;fillColor=none;" vertex="1" parent="1">
          <mxGeometry x="380" y="840" width="60" height="30" as="geometry" />
        </mxCell>
        <mxCell id="rqSCRaX1qZzWZmFZ8lpy-74" value="&lt;span style=&quot;font-size: 15px;&quot;&gt;Addresses&amp;nbsp;&lt;/span&gt;" style="text;html=1;align=center;verticalAlign=middle;resizable=0;points=[];autosize=1;strokeColor=none;fillColor=none;" vertex="1" parent="1">
          <mxGeometry x="90" y="840" width="100" height="30" as="geometry" />
        </mxCell>
        <mxCell id="rqSCRaX1qZzWZmFZ8lpy-75" value="&lt;font style=&quot;font-size: 15px;&quot;&gt;Restaurant&amp;nbsp;&lt;/font&gt;" style="text;html=1;align=center;verticalAlign=middle;resizable=0;points=[];autosize=1;strokeColor=none;fillColor=none;" vertex="1" parent="1">
          <mxGeometry x="40" y="700" width="100" height="30" as="geometry" />
        </mxCell>
        <mxCell id="rqSCRaX1qZzWZmFZ8lpy-79" value="&lt;font style=&quot;font-size: 15px;&quot;&gt;&lt;br&gt;Pharmacy&lt;/font&gt;" style="text;html=1;align=center;verticalAlign=middle;resizable=0;points=[];autosize=1;strokeColor=none;fillColor=none;" vertex="1" parent="1">
          <mxGeometry x="20" y="480" width="90" height="50" as="geometry" />
        </mxCell>
        <mxCell id="rqSCRaX1qZzWZmFZ8lpy-80" value="&lt;font style=&quot;font-size: 15px;&quot;&gt;Drugs&lt;/font&gt;" style="text;html=1;align=center;verticalAlign=middle;resizable=0;points=[];autosize=1;strokeColor=none;fillColor=none;" vertex="1" parent="1">
          <mxGeometry x="30" y="588" width="60" height="30" as="geometry" />
        </mxCell>
        <mxCell id="rqSCRaX1qZzWZmFZ8lpy-81" value="&lt;font style=&quot;font-size: 15px;&quot;&gt;Restaurant&amp;nbsp;&lt;/font&gt;" style="text;html=1;align=center;verticalAlign=middle;resizable=0;points=[];autosize=1;strokeColor=none;fillColor=none;" vertex="1" parent="1">
          <mxGeometry x="10" y="840" width="100" height="30" as="geometry" />
        </mxCell>
        <mxCell id="rqSCRaX1qZzWZmFZ8lpy-82" value="&lt;font style=&quot;font-size: 15px;&quot;&gt;&lt;br&gt;Pharmacy&lt;/font&gt;" style="text;html=1;align=center;verticalAlign=middle;resizable=0;points=[];autosize=1;strokeColor=none;fillColor=none;" vertex="1" parent="1">
          <mxGeometry x="420" y="480" width="90" height="50" as="geometry" />
        </mxCell>
        <mxCell id="rqSCRaX1qZzWZmFZ8lpy-83" value="&lt;span style=&quot;font-size: 15px;&quot;&gt;Addresses&amp;nbsp;&lt;/span&gt;" style="text;html=1;align=center;verticalAlign=middle;resizable=0;points=[];autosize=1;strokeColor=none;fillColor=none;" vertex="1" parent="1">
          <mxGeometry x="500" y="500" width="100" height="30" as="geometry" />
        </mxCell>
        <mxCell id="rqSCRaX1qZzWZmFZ8lpy-84" value="&lt;font style=&quot;font-size: 15px;&quot;&gt;Order Preparation&amp;nbsp;&lt;/font&gt;" style="text;html=1;align=center;verticalAlign=middle;resizable=0;points=[];autosize=1;strokeColor=none;fillColor=none;" vertex="1" parent="1">
          <mxGeometry x="500" y="405" width="150" height="30" as="geometry" />
        </mxCell>
        <mxCell id="rqSCRaX1qZzWZmFZ8lpy-85" value="&lt;font style=&quot;font-size: 14px;&quot;&gt;Orders items&lt;/font&gt;" style="text;html=1;align=center;verticalAlign=middle;resizable=0;points=[];autosize=1;strokeColor=none;fillColor=none;" vertex="1" parent="1">
          <mxGeometry x="15" y="420" width="100" height="30" as="geometry" />
        </mxCell>
        <mxCell id="rqSCRaX1qZzWZmFZ8lpy-87" value="&lt;font style=&quot;font-size: 14px;&quot;&gt;Orders&lt;/font&gt;" style="text;html=1;align=center;verticalAlign=middle;resizable=0;points=[];autosize=1;strokeColor=none;fillColor=none;" vertex="1" parent="1">
          <mxGeometry x="5" y="358" width="70" height="30" as="geometry" />
        </mxCell>
        <mxCell id="rqSCRaX1qZzWZmFZ8lpy-88" value="&lt;font style=&quot;font-size: 15px;&quot;&gt;Customers Phone_numbers&lt;/font&gt;" style="text;html=1;align=center;verticalAlign=middle;resizable=0;points=[];autosize=1;strokeColor=none;fillColor=none;" vertex="1" parent="1">
          <mxGeometry x="40" y="270" width="210" height="30" as="geometry" />
        </mxCell>
        <mxCell id="rqSCRaX1qZzWZmFZ8lpy-89" value="&lt;font style=&quot;font-size: 13px;&quot;&gt;Customer Service employees Language&amp;nbsp;&lt;/font&gt;" style="text;html=1;align=center;verticalAlign=middle;resizable=0;points=[];autosize=1;strokeColor=none;fillColor=none;" vertex="1" parent="1">
          <mxGeometry x="350" y="230" width="260" height="30" as="geometry" />
        </mxCell>
        <mxCell id="rqSCRaX1qZzWZmFZ8lpy-91" value="&lt;span style=&quot;color: rgb(0, 0, 0); font-family: Helvetica; font-size: 14px; font-style: normal; font-variant-ligatures: normal; font-variant-caps: normal; font-weight: 400; letter-spacing: normal; orphans: 2; text-align: center; text-indent: 0px; text-transform: none; widows: 2; word-spacing: 0px; -webkit-text-stroke-width: 0px; background-color: rgb(251, 251, 251); text-decoration-thickness: initial; text-decoration-style: initial; text-decoration-color: initial; float: none; display: inline !important;&quot;&gt;employees Phone_numbers&lt;/span&gt;" style="text;whiteSpace=wrap;html=1;" vertex="1" parent="1">
          <mxGeometry x="380" y="170" width="290" height="40" as="geometry" />
        </mxCell>
        <mxCell id="rqSCRaX1qZzWZmFZ8lpy-93" value="&lt;font style=&quot;font-size: 14px;&quot;&gt;employees Emails&lt;/font&gt;" style="text;html=1;align=center;verticalAlign=middle;resizable=0;points=[];autosize=1;strokeColor=none;fillColor=none;" vertex="1" parent="1">
          <mxGeometry x="370" y="108" width="140" height="30" as="geometry" />
        </mxCell>
        <mxCell id="rqSCRaX1qZzWZmFZ8lpy-94" value="&lt;font style=&quot;font-size: 15px;&quot;&gt;Customers&lt;/font&gt;" style="text;html=1;align=center;verticalAlign=middle;resizable=0;points=[];autosize=1;strokeColor=none;fillColor=none;" vertex="1" parent="1">
          <mxGeometry x="40" y="20" width="100" height="30" as="geometry" />
        </mxCell>
        <mxCell id="rqSCRaX1qZzWZmFZ8lpy-96" value="&lt;font style=&quot;font-size: 13px;&quot;&gt;Customer service&amp;nbsp;&lt;/font&gt;" style="text;html=1;align=center;verticalAlign=middle;resizable=0;points=[];autosize=1;strokeColor=none;fillColor=none;" vertex="1" parent="1">
          <mxGeometry x="25" y="100" width="130" height="30" as="geometry" />
        </mxCell>
      </root>
    </mxGraphModel>
  </diagram>
</mxfile>
